name rise43.5482peak65.4966fall89.1036.mot
datacolumns 19
datarows 26
range 0.66166100000000 0.70333100000000
endheader
time	ground_force1_vx	ground_force1_vy	ground_force1_vz	ground_force1_px	ground_force1_py	ground_force1_pz	ground_force2_vx	ground_force2_vy	ground_force2_vz	ground_force2_px	ground_force2_py	ground_force2_pz	ground_torque1_x	ground_torque1_y	ground_torque1_z	ground_torque2_x	ground_torque2_y	ground_torque2_z	
0.66166100000000	0.17553800000000	46.64972100000000	-9.53363300000000	0.28631700000000	0.00000000000000	0.12675300000000	-40.15455000000000	803.55024600000002	-62.26009400000000	0.09967900000000	0.00000000000000	-0.09314200000000	0.00000000000000	-6.50070500000000	0.00000000000000	0.00000000000000	-17.88460600000000	0.00000000000000	
0.66332800000000	0.33578800000000	53.36665600000000	-10.47261700000000	0.29004000000000	0.00000000000000	0.12738100000000	-40.91644100000000	802.02140699999995	-62.08602100000000	0.09888600000000	0.00000000000000	-0.09299100000000	0.00000000000000	-7.19447700000000	0.00000000000000	0.00000000000000	-17.85707100000000	0.00000000000000	
0.66499600000000	0.53587900000000	60.02607700000000	-11.28668600000000	0.29338800000000	0.00000000000000	0.12798000000000	-41.69979400000000	800.35143600000004	-61.89476400000000	0.09809000000000	0.00000000000000	-0.09283800000000	0.00000000000000	-7.81181900000000	0.00000000000000	0.00000000000000	-17.83268400000000	0.00000000000000	
0.66665700000000	0.77791800000000	66.56071000000000	-11.96054600000000	0.29641600000000	0.00000000000000	0.12855400000000	-42.50391700000000	798.53619200000003	-61.68581200000000	0.09729200000000	0.00000000000000	-0.09268300000000	0.00000000000000	-8.34188800000000	0.00000000000000	0.00000000000000	-17.81136600000000	0.00000000000000	
0.66832600000000	1.06340200000000	72.92855400000001	-12.48664200000000	0.29917000000000	0.00000000000000	0.12910600000000	-43.32800900000000	796.57152299999996	-61.45866000000000	0.09649100000000	0.00000000000000	-0.09252600000000	0.00000000000000	-8.77930100000000	0.00000000000000	0.00000000000000	-17.79301700000000	0.00000000000000	
0.66999300000000	1.39328700000000	79.11240500000000	-12.86460400000000	0.30168700000000	0.00000000000000	0.12963700000000	-44.17115000000000	794.45327599999996	-61.21281800000000	0.09568800000000	0.00000000000000	-0.09236700000000	0.00000000000000	-9.12379100000000	0.00000000000000	0.00000000000000	-17.77751600000000	0.00000000000000	
0.67166100000000	1.76807800000000	85.11741900000000	-13.10020600000000	0.30399700000000	0.00000000000000	0.13015100000000	-45.03230800000000	792.17730800000004	-60.94780600000000	0.09488300000000	0.00000000000000	-0.09220600000000	0.00000000000000	-9.37949300000000	0.00000000000000	0.00000000000000	-17.76472100000000	0.00000000000000	
0.67332600000000	2.18793600000000	90.96725700000000	-13.20398700000000	0.30612600000000	0.00000000000000	0.13064900000000	-45.91033600000000	789.73949500000003	-60.66316200000000	0.09407800000000	0.00000000000000	-0.09204300000000	0.00000000000000	-9.55398900000000	0.00000000000000	0.00000000000000	-17.75446900000000	0.00000000000000	
0.67499200000000	2.65277700000000	96.69938800000000	-13.18973200000000	0.30809600000000	0.00000000000000	0.13113200000000	-46.80397000000000	787.13574500000004	-60.35844100000000	0.09327200000000	0.00000000000000	-0.09187800000000	0.00000000000000	-9.65723500000000	0.00000000000000	0.00000000000000	-17.74657500000000	0.00000000000000	
0.67666100000000	3.16237500000000	102.36007300000000	-13.07294700000000	0.30992400000000	0.00000000000000	0.13160200000000	-47.71183300000000	784.36200899999994	-60.03321700000000	0.09246500000000	0.00000000000000	-0.09171000000000	0.00000000000000	-9.70046800000000	0.00000000000000	0.00000000000000	-17.74083400000000	0.00000000000000	
0.67832500000000	3.71644300000000	107.99950400000000	-12.86946300000000	0.31162700000000	0.00000000000000	0.13205900000000	-48.63243700000000	781.41429500000004	-59.68708800000000	0.09165900000000	0.00000000000000	-0.09154100000000	0.00000000000000	-9.69520300000000	0.00000000000000	0.00000000000000	-17.73702000000000	0.00000000000000	
0.67999200000000	4.31469700000000	113.66745200000000	-12.59424900000000	0.31321600000000	0.00000000000000	0.13250600000000	-49.56418100000000	778.28867900000000	-59.31967600000000	0.09085400000000	0.00000000000000	-0.09136900000000	0.00000000000000	-9.65237200000000	0.00000000000000	0.00000000000000	-17.73488600000000	0.00000000000000	
0.68166300000000	4.95689400000000	119.40969100000000	-12.26049700000000	0.31470300000000	0.00000000000000	0.13294200000000	-50.50535700000000	774.98132399999997	-58.93063000000000	0.09004900000000	0.00000000000000	-0.09119500000000	0.00000000000000	-9.58165300000000	0.00000000000000	0.00000000000000	-17.73416800000000	0.00000000000000	
0.68332500000000	5.64286000000000	125.26531600000000	-11.87900700000000	0.31609700000000	0.00000000000000	0.13336900000000	-51.45415200000000	771.48848899999996	-58.51962600000000	0.08924600000000	0.00000000000000	-0.09101800000000	0.00000000000000	-9.49101600000000	0.00000000000000	0.00000000000000	-17.73458200000000	0.00000000000000	
0.68499000000000	6.37248300000000	131.26503099999999	-11.45785600000000	0.31740600000000	0.00000000000000	0.13378700000000	-52.40865000000000	767.80655000000002	-58.08637600000000	0.08844400000000	0.00000000000000	-0.09083900000000	0.00000000000000	-9.38646600000000	0.00000000000000	0.00000000000000	-17.73582500000000	0.00000000000000	
0.68665600000000	7.14570400000000	137.43033600000001	-11.00233200000000	0.31863600000000	0.00000000000000	0.13419700000000	-53.36683900000000	763.93201099999999	-57.63062200000000	0.08764500000000	0.00000000000000	-0.09065700000000	0.00000000000000	-9.27198800000000	0.00000000000000	0.00000000000000	-17.73757900000000	0.00000000000000	
0.68832600000000	7.96248900000000	143.77353299999999	-10.51509300000000	0.31979300000000	0.00000000000000	0.13459900000000	-54.32660900000000	759.86152700000002	-57.15214400000000	0.08684800000000	0.00000000000000	-0.09047300000000	0.00000000000000	-9.14964400000000	0.00000000000000	0.00000000000000	-17.73950800000000	0.00000000000000	
0.68999300000000	8.82278900000000	150.29838599999999	-9.99649100000000	0.32088100000000	0.00000000000000	0.13499300000000	-55.28576600000000	755.59191799999996	-56.65075800000000	0.08605400000000	0.00000000000000	-0.09028700000000	0.00000000000000	-9.01979900000000	0.00000000000000	0.00000000000000	-17.74126200000000	0.00000000000000	
0.69165900000000	9.72650600000000	157.00126800000001	-9.44501200000000	0.32190400000000	0.00000000000000	0.13538100000000	-56.24202800000000	751.12018699999999	-56.12632200000000	0.08526300000000	0.00000000000000	-0.09009800000000	0.00000000000000	-8.88143200000000	0.00000000000000	0.00000000000000	-17.74247600000000	0.00000000000000	
0.69332500000000	10.67344700000000	163.87263400000001	-8.85777700000000	0.32286600000000	0.00000000000000	0.13576300000000	-57.19303900000000	746.44353999999998	-55.57873600000000	0.08447500000000	0.00000000000000	-0.08990600000000	0.00000000000000	-8.73248700000000	0.00000000000000	0.00000000000000	-17.74277500000000	0.00000000000000	
0.69499500000000	11.66328900000000	170.89862500000001	-8.23105400000000	0.32376800000000	0.00000000000000	0.13613900000000	-58.13636900000000	741.55940599999997	-55.00794200000000	0.08369100000000	0.00000000000000	-0.08971200000000	0.00000000000000	-8.57024900000000	0.00000000000000	0.00000000000000	-17.74176900000000	0.00000000000000	
0.69666200000000	12.69554500000000	178.06268100000000	-7.56074600000000	0.32461300000000	0.00000000000000	0.13650900000000	-59.06952200000000	736.46545300000002	-54.41392900000000	0.08291000000000	0.00000000000000	-0.08951500000000	0.00000000000000	-8.39168400000000	0.00000000000000	0.00000000000000	-17.73906000000000	0.00000000000000	
0.69833200000000	13.76953600000000	185.34703200000001	-6.84281400000000	0.32540300000000	0.00000000000000	0.13687300000000	-59.98994600000000	731.15960700000005	-53.79673200000000	0.08213300000000	0.00000000000000	-0.08931600000000	0.00000000000000	-8.19375300000000	0.00000000000000	0.00000000000000	-17.73424100000000	0.00000000000000	
0.69999800000000	14.88437200000000	192.73398800000001	-6.07362900000000	0.32613800000000	0.00000000000000	0.13723200000000	-60.89503500000000	725.64006900000004	-53.15643500000000	0.08135900000000	0.00000000000000	-0.08911300000000	0.00000000000000	-7.97366000000000	0.00000000000000	0.00000000000000	-17.72689700000000	0.00000000000000	
0.70165900000000	16.03894200000000	200.20696000000001	-5.25023100000000	0.32682000000000	0.00000000000000	0.13758600000000	-61.78214100000000	719.90533200000004	-52.49317200000000	0.08059000000000	0.00000000000000	-0.08890900000000	0.00000000000000	-7.72904700000000	0.00000000000000	0.00000000000000	-17.71660800000000	0.00000000000000	
0.70333100000000	17.23191000000000	207.75121200000001	-4.37049600000000	0.32744900000000	0.00000000000000	0.13793500000000	-62.64857800000000	713.95419500000003	-51.80712600000000	0.07982300000000	0.00000000000000	-0.08870100000000	0.00000000000000	-7.45811200000000	0.00000000000000	0.00000000000000	-17.70294800000000	0.00000000000000	
